<svg width="781" height="220" viewBox="0 0 781 220" fill="none" xmlns="http://www.w3.org/2000/svg">
<g clip-path="url(#clip0_361_219)">
<path d="M26.9658 192.436C39.8524 205.322 60.7444 205.322 73.6311 192.436C86.5164 179.549 86.5164 158.657 73.6311 145.77C60.7444 132.885 39.8524 132.885 26.9658 145.77C14.0791 158.657 14.0791 179.549 26.9658 192.436Z" fill="#00A79E"/>
<path d="M205.95 59.5361C207.266 58.5655 208.544 57.5215 209.736 56.3295C222.623 43.4428 222.623 22.5508 209.736 9.66414C196.85 -3.2212 175.958 -3.2212 163.072 9.66414C161.883 10.8535 160.84 12.1295 159.871 13.4428C165.862 16.5948 171.63 20.2855 177.047 24.6228C189.482 34.5815 199.095 46.5228 205.95 59.5361Z" fill="#00A79E"/>
<path d="M163.072 56.3296C151.375 44.6322 150.333 26.3576 159.872 13.4429C121.763 -6.61045 73.9041 -2.72378 39.6228 25.0975C18.0814 42.5802 5.04012 66.0096 0.489451 90.6989C-4.32788 116.832 27.5481 133.522 46.3401 114.73L47.9881 113.083C51.5721 109.498 53.7761 104.851 54.7694 99.8789C56.9641 88.8869 62.5161 78.4402 71.4961 70.2056C92.3201 51.1109 125.339 51.2175 146.033 70.4535C168.983 91.7869 169.477 127.699 147.517 149.659C139.64 157.536 129.965 162.488 119.815 164.574C114.637 165.636 109.796 167.936 106.059 171.674L104.641 173.092C86.0601 191.674 102.228 223.642 128.096 219.023C149.453 215.21 169.899 205.052 186.404 188.547C221.332 153.619 227.825 101.058 205.949 59.5362C193.036 69.0682 174.767 68.0242 163.072 56.3296Z" fill="#00A79E"/>
<path d="M163.073 56.3295C174.767 68.0242 193.037 69.0682 205.95 59.5362C199.095 46.5228 189.483 34.5815 177.047 24.6228C171.631 20.2842 165.862 16.5935 159.873 13.4428C150.334 26.3575 151.375 44.6322 163.073 56.3295Z" fill="#008078"/>
<path d="M388.692 90.3418H378.276V57.5698C378.276 52.2338 373.95 47.9084 368.614 47.9084C363.278 47.9084 358.953 52.2338 358.953 57.5698V161.903C358.953 167.239 363.278 171.564 368.614 171.564C373.95 171.564 378.276 167.239 378.276 161.903V108.827H388.692C393.796 108.827 397.934 104.69 397.934 99.5845C397.934 94.4804 393.796 90.3418 388.692 90.3418Z" fill="#1E406F"/>
<path d="M322.525 120.307C322.525 125.913 321.165 130.302 318.462 133.475C315.754 136.647 311.646 138.237 306.14 138.237C300.625 138.237 296.517 136.647 293.816 133.475C291.101 130.302 289.753 125.913 289.753 120.307V84.7352C289.753 79.1366 291.101 74.7473 293.816 71.5753C296.517 68.4019 300.625 66.8126 306.14 66.8126C311.646 66.8126 315.754 68.4019 318.462 71.5753C321.165 74.7473 322.525 79.1366 322.525 84.7352V120.307ZM332.114 58.8326C328.988 55.9339 325.226 53.6979 320.844 52.1072C316.454 50.5179 311.549 49.7273 306.14 49.7273C300.722 49.7273 295.817 50.5179 291.434 52.1072C287.045 53.6979 283.284 55.9339 280.157 58.8326C277.03 61.7233 274.63 65.2032 272.949 69.2659C271.268 73.3272 270.424 77.7819 270.424 82.6366V122.414C270.424 127.267 271.268 131.722 272.949 135.785C274.63 139.846 277.03 143.326 280.157 146.218C283.284 149.115 287.045 151.353 291.434 152.942C295.817 154.525 300.722 155.323 306.14 155.323C311.549 155.323 316.454 154.525 320.844 152.942C325.226 151.353 328.988 149.115 332.114 146.218C335.241 143.326 337.649 139.846 339.329 135.785C341.01 131.722 341.848 127.267 341.848 122.414V82.6366C341.848 77.7819 341.01 73.3272 339.329 69.2659C337.649 65.2032 335.241 61.7233 332.114 58.8326" fill="#1E406F"/>
<path d="M597.502 121.714C593.067 115.643 588.84 109.574 584.824 103.503C583.143 100.984 581.835 98.1842 580.907 95.1042C579.971 92.0229 579.507 88.5682 579.507 84.7362V70.3122H600.166C604.884 70.3122 608.708 66.4869 608.708 61.7696C608.708 57.0509 604.884 53.2269 600.166 53.2269H538.25C533.531 53.2269 529.706 57.0509 529.706 61.7696C529.706 66.4869 533.531 70.3122 538.25 70.3122H559.896V84.7362C559.896 88.5682 559.431 92.0229 558.496 95.1042C557.56 98.1842 556.207 100.984 554.434 103.503C550.234 109.482 545.544 115.715 540.363 122.198C536.903 126.531 533.372 130.871 529.77 135.22C526.688 138.94 526.831 144.376 530.158 147.879C534.07 151.999 540.675 151.791 544.351 147.459C546.908 144.443 549.5 141.415 552.124 138.374C557.116 132.586 561.439 127.314 565.076 122.551C566.85 120.307 568.439 117.88 569.839 115.271C570.492 116.579 571.219 117.815 572.01 118.979C572.802 120.15 573.666 121.34 574.6 122.551C578.146 127.314 581.999 132.239 586.152 137.328C588.336 140.003 590.594 142.775 592.922 145.644C596.356 149.876 602.74 150.182 606.53 146.266C609.728 142.96 609.918 137.814 607.054 134.216C603.667 129.963 600.482 125.794 597.502 121.714Z" fill="#1E406F"/>
<path d="M629.499 47.9085C624.162 47.9085 619.834 52.2351 619.834 57.5738V161.9C619.834 167.238 624.162 171.564 629.499 171.564C634.837 171.564 639.165 167.238 639.165 161.9V57.5738C639.165 52.2351 634.837 47.9085 629.499 47.9085Z" fill="#1E406F"/>
<path d="M705.408 133.475H677.117V70.3122H705.408V133.475ZM715.069 53.2269H667.454C662.12 53.2269 657.793 57.5522 657.793 62.8882V140.9C657.793 146.235 662.12 150.562 667.454 150.562H715.069C720.405 150.562 724.73 146.235 724.73 140.9V62.8882C724.73 57.5522 720.405 53.2269 715.069 53.2269" fill="#1E406F"/>
<path d="M771.418 90.3418H761.002V57.5698C761.002 52.2338 756.675 47.9084 751.339 47.9084C746.004 47.9084 741.678 52.2338 741.678 57.5698V161.903C741.678 167.239 746.004 171.564 751.339 171.564C756.675 171.564 761.002 167.239 761.002 161.903V108.827H771.418C776.522 108.827 780.66 104.69 780.66 99.5845C780.66 94.4804 776.522 90.3418 771.418 90.3418Z" fill="#1E406F"/>
<path d="M445.644 68.7746H472.375V109.527H445.644V68.7746ZM500.94 109.527H491.697V68.7746H500.94C505.659 68.7746 509.483 64.9493 509.483 60.2319C509.483 55.5133 505.659 51.6893 500.94 51.6893H417.071C412.352 51.6893 408.529 55.5133 408.529 60.2319C408.529 64.9493 412.352 68.7746 417.071 68.7746H426.315V109.527H417.071C412.352 109.527 408.529 113.352 408.529 118.071C408.529 122.788 412.352 126.613 417.071 126.613H500.94C505.659 126.613 509.483 122.788 509.483 118.071C509.483 113.352 505.659 109.527 500.94 109.527Z" fill="#1E406F"/>
<path d="M509.482 146.217H408.527C403.808 146.217 399.984 150.041 399.984 154.76C399.984 159.479 403.808 163.303 408.527 163.303H509.482C514.2 163.303 518.024 159.479 518.024 154.76C518.024 150.041 514.2 146.217 509.482 146.217Z" fill="#1E406F"/>
</g>
<defs>
<clipPath id="clip0_361_219">
<rect width="780.661" height="219.473" fill="white"/>
</clipPath>
</defs>
</svg>
