<svg width="230" height="230" viewBox="0 0 230 230" fill="none" xmlns="http://www.w3.org/2000/svg">
<g clip-path="url(#clip0_361_150)">
<path d="M28.2214 201.386C41.7068 214.871 63.5707 214.871 77.0561 201.386H77.0574C90.5427 187.901 90.5427 166.037 77.0574 152.551H77.0561C63.5707 139.065 41.7068 139.065 28.2214 152.551C14.7361 166.037 14.7361 187.901 28.2214 201.386Z" fill="#00A79E"/>
<path d="M215.53 62.3057C216.907 61.2897 218.246 60.1977 219.493 58.9497C232.978 45.4643 232.978 23.6003 219.493 10.115C206.007 -3.37033 184.143 -3.37033 170.658 10.115C169.413 11.359 168.323 12.695 167.309 14.0683C173.577 17.367 179.614 21.2283 185.282 25.7683C198.297 36.1897 208.355 48.687 215.53 62.3057Z" fill="#00A79E"/>
<path d="M170.658 58.9497C158.416 46.7084 157.326 27.5831 167.308 14.0684C127.427 -6.91827 77.3415 -2.85026 41.4669 26.2657C18.9229 44.5617 5.27485 69.0804 0.512186 94.9164C-4.52915 122.267 28.8309 139.732 48.4962 120.067L50.2202 118.342C53.9722 114.591 56.2775 109.727 57.3175 104.526C59.6149 93.0217 65.4242 82.0884 74.8215 73.4711C96.6148 53.4884 131.168 53.6004 152.826 73.7311C176.843 96.0551 177.36 133.638 154.379 156.62C146.135 164.864 136.011 170.047 125.388 172.228C119.971 173.34 114.904 175.748 110.992 179.659L109.508 181.143C90.0642 200.588 106.984 234.044 134.055 229.21C156.406 225.219 177.802 214.59 195.075 197.316C231.627 160.764 238.423 105.759 215.53 62.3057C202.015 72.2804 182.896 71.1884 170.658 58.9497Z" fill="#00A79E"/>
<path d="M170.658 58.9495C182.897 71.1882 202.016 72.2802 215.53 62.3055C208.357 48.6855 198.297 36.1895 185.284 25.7682C179.614 21.2282 173.577 17.3655 167.309 14.0682C157.326 27.5828 158.417 46.7082 170.658 58.9495Z" fill="#008078"/>
</g>
<defs>
<clipPath id="clip0_361_150">
<rect width="229.607" height="229.681" fill="white"/>
</clipPath>
</defs>
</svg>
