<svg width="37" height="37" viewBox="0 0 37 37" fill="none" xmlns="http://www.w3.org/2000/svg">
<circle cx="18.5" cy="18.5" r="18.5" fill="#FFE812"/>
<g clip-path="url(#clip0_316_167)">
<path d="M33 30.7344C33 31.9857 31.9857 33 30.7344 33H6.26563C5.01432 33 4 31.9857 4 30.7344V6.26563C4 5.01432 5.01432 4 6.26563 4H30.7344C31.9857 4 33 5.01432 33 6.26563V30.7344Z" fill="#FFE812"/>
<path d="M18.5 8.07812C11.9934 8.07812 6.71875 12.237 6.71875 17.3672C6.71875 20.6839 8.92388 23.5943 12.241 25.2376C12.0605 25.86 11.0813 29.2414 11.0424 29.5071C11.0424 29.5071 11.0189 29.7067 11.1482 29.7828C11.2774 29.8589 11.4294 29.7998 11.4294 29.7998C11.8001 29.748 15.7277 26.9892 16.4075 26.5101C17.0866 26.6063 17.7859 26.6562 18.5 26.6562C25.0066 26.6562 30.2812 22.4975 30.2812 17.3672C30.2812 12.237 25.0066 8.07812 18.5 8.07812Z" fill="black"/>
<path d="M11.9863 20.6099C11.6115 20.6099 11.3066 20.3187 11.3066 19.9608V15.9229H10.2461C9.87828 15.9229 9.5791 15.6242 9.5791 15.2573C9.5791 14.8904 9.87839 14.5918 10.2461 14.5918H13.7266C14.0944 14.5918 14.3936 14.8904 14.3936 15.2573C14.3936 15.6242 14.0943 15.9229 13.7266 15.9229H12.666V19.9608C12.666 20.3187 12.3612 20.6099 11.9863 20.6099ZM17.9463 20.601C17.6629 20.601 17.446 20.4859 17.3807 20.3008L17.0441 19.4197L14.9715 19.4196L14.6347 20.3013C14.5696 20.486 14.3529 20.601 14.0695 20.601C13.9204 20.6012 13.773 20.5692 13.6374 20.5072C13.45 20.4208 13.2699 20.1831 13.4763 19.5421L15.1021 15.2628C15.2167 14.9373 15.5645 14.602 16.0072 14.5919C16.4512 14.6019 16.7991 14.9373 16.9138 15.2634L18.539 19.5408C18.7458 20.1834 18.5657 20.4211 18.3783 20.5073C18.2427 20.5692 18.0954 20.6011 17.9463 20.601C17.9462 20.601 17.9463 20.601 17.9463 20.601V20.601ZM16.6867 18.2158L16.0078 16.2872L15.3289 18.2158H16.6867V18.2158ZM19.6328 20.5107C19.2736 20.5107 18.9814 20.2312 18.9814 19.8877V15.2715C18.9814 14.8966 19.2927 14.5918 19.6753 14.5918C20.0578 14.5918 20.3691 14.8966 20.3691 15.2715V19.2646H21.8135C22.1727 19.2646 22.4648 19.5442 22.4648 19.8877C22.4648 20.2312 22.1727 20.5107 21.8135 20.5107H19.6328ZM23.4089 20.601C23.0341 20.601 22.7292 20.2962 22.7292 19.9213V15.2715C22.7292 14.8966 23.0341 14.5918 23.4089 14.5918C23.7838 14.5918 24.0886 14.8966 24.0886 15.2715V16.7324L25.9849 14.836C26.0825 14.7385 26.2165 14.6848 26.3619 14.6848C26.5316 14.6848 26.702 14.758 26.8297 14.8855C26.9487 15.0045 27.0198 15.1575 27.0295 15.3165C27.0394 15.4768 26.986 15.6237 26.8795 15.7303L25.3306 17.2789L27.0037 19.4954C27.0577 19.5665 27.0971 19.6476 27.1195 19.7341C27.1419 19.8205 27.1469 19.9105 27.1342 19.9989C27.1221 20.0874 27.0925 20.1725 27.0472 20.2495C27.002 20.3264 26.9419 20.3936 26.8705 20.4472C26.7529 20.5365 26.6093 20.5847 26.4616 20.5844C26.3563 20.5849 26.2524 20.5607 26.1581 20.5138C26.0638 20.4668 25.9818 20.3985 25.9187 20.3142L24.3247 18.2022L24.0888 18.438V19.921C24.0886 20.1013 24.0169 20.2741 23.8895 20.4016C23.762 20.5291 23.5892 20.6008 23.4089 20.601V20.601Z" fill="#FFE812"/>
</g>
<defs>
<clipPath id="clip0_316_167">
<rect x="4" y="4" width="29" height="29" rx="14.5" fill="white"/>
</clipPath>
</defs>
</svg>
