<svg width="20" height="23" viewBox="0 0 20 23" fill="none" xmlns="http://www.w3.org/2000/svg">
<path d="M16.6667 15.656C15.8227 15.656 15.0613 15.984 14.484 16.512L6.56667 11.8947C6.628 11.644 6.66667 11.3827 6.66667 11.116C6.66667 10.8493 6.628 10.5893 6.56667 10.3387L14.4 5.76667C15.0133 6.34451 15.824 6.66643 16.6667 6.66667C18.5053 6.66667 20 5.172 20 3.33333C20 1.49467 18.5053 0 16.6667 0C14.828 0 13.3333 1.49467 13.3333 3.33333C13.3333 3.6 13.372 3.86133 13.4333 4.11067L5.6 8.68267C4.98635 8.1054 4.17583 7.78358 3.33333 7.78267C1.49467 7.78267 0 9.27733 0 11.116C0 12.9547 1.49467 14.4493 3.33333 14.4493C4.17596 14.4491 4.98671 14.1272 5.6 13.5493L13.5173 18.1667C13.459 18.405 13.429 18.6493 13.428 18.8947C13.4283 19.5348 13.6183 20.1606 13.9741 20.6927C14.33 21.2249 14.8356 21.6396 15.4271 21.8845C16.0186 22.1294 16.6694 22.1934 17.2972 22.0684C17.9251 21.9434 18.5018 21.6351 18.9545 21.1825C19.4071 20.7298 19.7154 20.1531 19.8404 19.5252C19.9654 18.8974 19.9014 18.2466 19.6565 17.6551C19.4116 17.0636 18.9969 16.558 18.4647 16.2021C17.9326 15.8463 17.3068 15.6563 16.6667 15.656Z" fill="white"/>
</svg>
