<svg width="17" height="15" viewBox="0 0 17 15" fill="none" xmlns="http://www.w3.org/2000/svg">
<path d="M9.71429 0C7.78199 0 5.92884 0.790176 4.56251 2.1967C3.19617 3.60322 2.42857 5.51088 2.42857 7.5H0L3.14905 10.7417L3.20571 10.8583L6.47619 7.5H4.04762C4.04762 5.9529 4.64464 4.46917 5.70735 3.37521C6.77005 2.28125 8.21139 1.66667 9.71429 1.66667C11.2172 1.66667 12.6585 2.28125 13.7212 3.37521C14.7839 4.46917 15.381 5.9529 15.381 7.5C15.381 9.0471 14.7839 10.5308 13.7212 11.6248C12.6585 12.7188 11.2172 13.3333 9.71429 13.3333C8.15191 13.3333 6.73524 12.675 5.71524 11.6167L4.56571 12.8C5.88524 14.1667 7.69048 15 9.71429 15C11.6466 15 13.4997 14.2098 14.8661 12.8033C16.2324 11.3968 17 9.48912 17 7.5C17 5.51088 16.2324 3.60322 14.8661 2.1967C13.4997 0.790176 11.6466 0 9.71429 0Z" fill="black"/>
</svg>
