<svg width="10" height="8" viewBox="0 0 10 8" fill="none" xmlns="http://www.w3.org/2000/svg">
<path d="M7.7453 0.244519C7.90274 0.08845 8.11528 0.000614854 8.33697 3.21575e-06C8.55866 -0.000608423 8.77168 0.0860526 8.92998 0.241251C9.08829 0.396449 9.17915 0.607714 9.18292 0.829371C9.1867 1.05103 9.10309 1.26527 8.95017 1.42577L4.45917 7.03952C4.38199 7.12266 4.28883 7.18937 4.18527 7.23568C4.08171 7.28199 3.96988 7.30694 3.85645 7.30904C3.74303 7.31114 3.63035 7.29035 3.52515 7.24791C3.41995 7.20546 3.32438 7.14224 3.24417 7.06202L0.268547 4.08527C0.185649 4.00802 0.119159 3.91487 0.0730434 3.81138C0.0269275 3.70788 0.00213019 3.59615 0.00013131 3.48286C-0.00186757 3.36957 0.0189729 3.25703 0.0614091 3.15197C0.103845 3.04691 0.167008 2.95147 0.247129 2.87135C0.32725 2.79123 0.422688 2.72807 0.52775 2.68563C0.632811 2.6432 0.745344 2.62235 0.858635 2.62435C0.971926 2.62635 1.08365 2.65115 1.18715 2.69727C1.29065 2.74338 1.3838 2.80987 1.46105 2.89277L3.8168 5.24739L7.72392 0.26927C7.73089 0.260553 7.73841 0.252286 7.74642 0.244519H7.7453Z" fill="#818181"/>
</svg>
