<svg width="12" height="18" viewBox="0 0 12 18" fill="none" xmlns="http://www.w3.org/2000/svg">
<path d="M6 8.55C5.43168 8.55 4.88663 8.31295 4.48477 7.89099C4.08291 7.46903 3.85714 6.89674 3.85714 6.3C3.85714 5.70326 4.08291 5.13097 4.48477 4.70901C4.88663 4.28705 5.43168 4.05 6 4.05C6.56832 4.05 7.11337 4.28705 7.51523 4.70901C7.91709 5.13097 8.14286 5.70326 8.14286 6.3C8.14286 6.59547 8.08743 6.88806 7.97974 7.16104C7.87205 7.43402 7.71421 7.68206 7.51523 7.89099C7.31625 8.09992 7.08002 8.26566 6.82004 8.37873C6.56005 8.4918 6.2814 8.55 6 8.55M6 0C4.4087 0 2.88258 0.663748 1.75736 1.84523C0.632141 3.02671 0 4.62914 0 6.3C0 11.025 6 18 6 18C6 18 12 11.025 12 6.3C12 4.62914 11.3679 3.02671 10.2426 1.84523C9.11742 0.663748 7.5913 0 6 0V0Z" fill="#2F69FF"/>
</svg>
